<?xml version="1.0" encoding="utf-8"?>
<!-- Generator: Adobe Illustrator 13.0.2, SVG Export Plug-In . SVG Version: 6.00 Build 14948)  -->
<!DOCTYPE svg PUBLIC "-//W3C//DTD SVG 1.1 Basic//EN" "http://www.w3.org/Graphics/SVG/1.1/DTD/svg11-basic.dtd" [
	<!ENTITY st0 "fill:#FFFF00;">
]>
<svg version="1.1" baseProfile="basic" id="Layer_1"
	 xmlns="http://www.w3.org/2000/svg" xmlns:xlink="http://www.w3.org/1999/xlink" x="0px" y="0px" width="112.5px"
	 height="112.501px" viewBox="0 0 112.5 112.501" xml:space="preserve">
<g>
	<polygon style="&st0;" points="50.872,34.426 25.518,103.937 90.875,103.937 	"/>
	<path d="M111.114,13.228l-0.033-0.102l-0.036-0.1c-1.958-5.377-6.192-9.613-11.57-11.57l-0.103-0.037l-0.1-0.032
		c-2.257-0.719-4.515-1.075-6.917-1.231C89.939-0.004,87.33,0.001,83.965,0h-55.43c-3.367,0.001-5.971-0.003-8.375,0.155
		c-2.417,0.157-4.674,0.512-6.932,1.23l-0.103,0.032l-0.1,0.037C7.648,3.413,3.413,7.649,1.456,13.026L1.42,13.127l-0.032,0.102
		c-0.721,2.256-1.074,4.513-1.231,6.917c-0.16,2.415-0.155,5.024-0.156,8.39v55.325c0.001,3.416-0.004,6.053,0.155,8.48
		c0.157,2.416,0.512,4.676,1.231,6.932l0.031,0.1l0.037,0.102c1.958,5.379,6.193,9.616,11.571,11.573l0.104,0.037l0.099,0.031
		c2.257,0.719,4.513,1.076,6.917,1.232c2.416,0.156,5.024,0.15,8.39,0.152h55.326c3.418-0.002,6.05,0.004,8.479-0.152
		c2.416-0.156,4.675-0.514,6.933-1.232l0.094-0.031l0.108-0.037c5.378-1.957,9.613-6.194,11.57-11.573l0.036-0.1l0.033-0.102
		c0.72-2.256,1.075-4.512,1.231-6.916c0.159-2.418,0.153-5.025,0.154-8.391V28.64c-0.001-3.418,0.004-6.05-0.154-8.479
		C112.189,17.744,111.833,15.485,111.114,13.228z M77.556,96.447l-3.339,5.73c-4.788,0-9.505-1.74-12.406-12.695l-2.612-9.941
		l-8.562,21.623h-9.506l14.947-33.305c-2.176-8.779-6.53-10.011-11.391-10.011v-1.161l3.627-5.733
		c6.095,0,11.174,3.411,14.802,15.528l5.514,18.574c2.177,7.4,4.137,10.229,8.926,10.229V96.447L77.556,96.447z M102.384,83.964
		c0.002,3.365-0.004,5.83-0.132,7.715c-0.127,1.844-0.339,3.092-0.748,4.424c-0.487,1.301-1.259,2.455-2.236,3.398
		c-5.179-3.332-9.242-8.977-12.327-14.348c-4.257-7.416-16.207-37.352-19.868-45.792c-1.831-4.22-3.78-8.23-6.129-11.402
		c-2.348-3.172-4.712-4.86-7.234-4.82c-2.521,0.04-4.928,1.71-7.129,4.788c-2.201,3.078-4.568,8.479-5.988,13.027
		C37.754,50.05,33.683,68.457,30.11,78.56s-8.27,14.148-10.306,16.008c-1.522,1.391-3.988,3.068-6.996,4.5
		c-0.776-0.854-1.396-1.854-1.812-2.957c-0.409-1.332-0.622-2.582-0.749-4.443c-0.129-1.896-0.134-4.389-0.133-7.807V28.536
		c-0.001-3.366,0.004-5.832,0.133-7.714c0.126-1.849,0.339-3.101,0.75-4.435c0.938-2.487,2.901-4.451,5.388-5.387
		c1.334-0.411,2.584-0.623,4.445-0.75c1.878-0.127,4.339-0.133,7.703-0.133h55.43c3.366,0,5.832,0.005,7.715,0.133
		c1.848,0.127,3.101,0.34,4.435,0.75c2.489,0.94,4.455,2.907,5.39,5.398c0.409,1.331,0.62,2.578,0.747,4.436
		c0.129,1.896,0.134,4.389,0.133,7.808L102.384,83.964L102.384,83.964z"/>
</g>
</svg>
