<?xml version="1.0" encoding="utf-8"?>
<!-- Generator: Adobe Illustrator 13.0.2, SVG Export Plug-In . SVG Version: 6.00 Build 14948)  -->
<!DOCTYPE svg PUBLIC "-//W3C//DTD SVG 1.1//EN" "http://www.w3.org/Graphics/SVG/1.1/DTD/svg11.dtd">
<svg version="1.1" id="Layer_2" xmlns="http://www.w3.org/2000/svg" xmlns:xlink="http://www.w3.org/1999/xlink" x="0px" y="0px"
	 width="279.519px" height="142.219px" viewBox="0 0 279.519 142.219" enable-background="new 0 0 279.519 142.219"
	 xml:space="preserve">
<path fill="#8F8F8F" d="M66.01,10.495c0-3.108-1.165-5.574-3.624-7.518C59.926,1.035,56.689,0,52.551,0
	c-2.072,1.812-4.013,3.755-5.954,5.698s-4.789,4.536-8.286,7.645l-5.435-5.567c-2.717-2.72-4.919-4.663-6.599-5.833
	c-1.683-1.166-3.754-1.685-6.21-1.685c-3.24,0-5.827,1.039-7.51,3.108c-1.679,2.078-2.59,4.663-2.59,8.033
	c0,0.52,0,1.039,0.135,1.427c0,0.389,0.127,0.904,0.254,1.423l11.652,10.107c1.941,1.681,3.621,3.108,5.047,4.147
	c1.426,1.031,2.844,1.808,4.013,2.458c-1.684,0.389-3.367,0.777-4.92,1.297c-5.177,1.685-9.573,4.278-13.59,7.644
	C8.675,43.27,5.569,47.544,3.24,52.857C1.168,58.043,0,64.129,0,71.127c0,5.955,1.038,11.53,3.109,16.451
	c2.072,4.924,5.051,9.198,8.933,12.698c3.881,3.498,8.413,6.345,13.848,8.288c5.435,1.942,11.519,2.851,18.118,2.851
	c5.822,0,10.742-0.778,14.497-2.331c-1.038-0.389-1.941-0.777-2.848-1.165c-2.717-1.298-4.789-2.979-6.342-5.056
	c-1.553-1.947-2.33-4.401-2.33-7.121c0-2.206,0.389-4.018,1.165-5.702c-0.519,0-1.038,0.13-1.683,0.13
	c-5.435,0-9.965-1.685-13.717-4.924c-3.755-3.238-5.569-8.164-5.569-14.77c0-3.239,0.519-6.09,1.553-8.548
	c1.037-2.466,2.463-4.409,4.143-6.09c1.684-1.685,3.756-2.851,6.211-3.758c2.329-0.904,4.919-1.293,7.51-1.293h0.258
	c0.388-2.465,0.907-4.666,2.071-6.867c1.679-3.108,4.013-5.829,7.118-7.906c1.165-0.777,2.717-1.423,4.135-2.2l-0.253-0.258
	c-3.105-2.073-7.245-3.37-12.295-3.885c1.295-0.646,2.46-1.427,3.624-2.332l7.118-5.833c2.717-2.2,4.663-4.144,5.827-5.697
	C65.364,14.381,66.01,12.565,66.01,10.495"/>
<path fill="#8F8F8F" d="M107.556,38.091c-0.134-0.135-0.261-0.388-0.388-0.523c-1.426-1.808-3.497-3.366-5.957-4.532
	c-2.587-1.166-5.562-2.074-8.928-2.589c-3.493-0.523-7.122-0.912-11.007-0.912c-5.169,0-9.831,0.65-14.101,1.689
	c-2.587,0.646-4.916,1.554-6.992,2.589c4.017,2.724,6.084,6.225,6.084,10.495c0,2.07-0.514,3.886-1.422,5.571
	c-0.907,1.686-2.071,3.24-3.362,4.532c-1.814-0.904-4.017-1.681-6.473-2.458c-2.463-0.777-5.181-1.167-8.155-1.167
	c-0.131,1.167-0.258,2.458-0.258,3.756c0,7.125,2.198,12.695,6.73,16.581c4.527,3.889,11.261,6.737,20.45,8.426l4.785,0.903
	c2.979,0.516,5.046,1.166,6.345,2.07c1.292,0.911,1.941,1.942,1.941,3.501c0,1.555-0.907,2.851-2.59,3.755
	c-1.683,0.907-4.27,1.428-7.506,1.428c-4.527,0-8.544-0.521-12.042-1.555c0.392,0.515,0.911,1.034,1.168,1.555
	c1.038,1.685,1.553,3.885,1.553,6.217c0,4.274-2.067,7.645-6.21,10.106c-0.776,0.52-1.814,1.166-2.717,1.555
	c2.067,0.776,4.4,0.907,6.987,1.297c3.755,0.646,7.898,0.904,12.295,0.904c11.649,0,20.581-2.333,26.531-6.869
	c0.907-0.775,1.814-1.419,2.59-2.331c-0.776-0.639-1.684-1.292-2.329-2.068c-3.625-3.499-6.473-7.902-8.414-12.958
	c-2.072-5.051-2.979-10.753-2.979-17.102c0-2.589,0.257-5.051,0.518-7.513c-2.459-0.905-5.231-1.57-8.21-2.217l-5.118-0.63
	c-2.979-0.65-4.919-1.3-5.954-2.078c-1.033-0.778-1.557-1.682-1.557-2.847c0-1.685,0.911-2.981,2.853-3.759
	c1.941-0.777,4.527-1.166,8.025-1.166c1.679,0,3.616,0.13,5.561,0.52c2.071,0.261,4.139,0.777,6.084,1.166
	c0.515,0.13,0.907,0.257,1.426,0.388c1.941-4.278,4.527-8.032,7.633-11.141C105.481,39.772,106.519,38.868,107.556,38.091"/>
<path fill="#8F8F8F" d="M172.914,53.765c-1.941-5.055-4.789-9.33-8.414-12.954c-3.62-3.497-8.025-6.217-13.071-8.294
	c-5.046-1.943-10.742-2.982-16.953-2.982s-11.907,0.912-16.954,2.854c-3.755,1.424-6.991,3.498-9.966,5.702
	c1.292,1.681,1.941,3.497,1.941,5.829c0,2.458-0.388,4.532-1.299,6.217c-0.903,1.685-2.068,3.239-3.363,4.406
	c-0.907-0.516-2.071-1.035-3.75-1.686c-1.296-0.389-2.849-0.646-4.271-1.035c-0.261,0.646-0.388,1.035-0.649,1.686
	c-1.164,2.978-1.941,5.567-2.46,8.938c5.827,1.942,10.354,4.924,13.33,7.775c4.274,4.016,6.472,9.33,6.472,15.804
	c0,6.736-2.329,11.787-6.599,16.062c3.105,2.594,6.86,5.056,10.869,6.61c5.05,1.945,10.743,2.85,16.957,2.85
	c6.215,0,11.907-0.904,16.957-2.719c5.046-1.815,9.447-4.41,13.071-7.902c3.62-3.501,6.472-7.776,8.414-12.954
	c1.94-5.187,2.974-11.015,2.974-17.493C175.892,64.518,174.985,58.82,172.914,53.765 M140.172,94.758c0,0-1.774,2.784-5.957,2.784
	c-4.183,0-5.95-2.784-5.95-2.784v-0.205c0-0.684,0.506-1.186,1.188-1.186h4.762h4.76c0.682,0,1.197,0.502,1.197,1.186V94.758z
	 M140.172,90.374c0,1.015-0.515,1.772-1.197,1.772h-4.76h-4.762c-0.682,0-1.188-0.758-1.188-1.772v-0.631
	c0-1.01,0.506-1.769,1.188-1.769h4.762h4.76c0.682,0,1.197,0.759,1.197,1.769V90.374z M143.535,77.861
	c-3.078,4.147-3.363,7.128-3.363,7.128c0,1.035-0.781,1.812-1.815,1.812h-4.142h-4.144c-1.03,0-1.806-0.776-1.806-1.812
	c0,0-0.293-2.98-3.367-7.128c-2.29-3.085-4.531-6.476-4.531-11.531c0-4.92,1.165-8.806,3.625-11.399
	c2.459-2.72,5.826-4.017,10.224-4.017c4.404,0,7.767,1.296,10.227,4.017c2.457,2.593,3.621,6.479,3.621,11.399
	C148.062,71.385,145.82,74.775,143.535,77.861"/>
<path fill="#8F8F8F" d="M6.793,128.457c0.895-0.182,2.174-0.285,3.395-0.285c1.892,0,3.113,0.345,3.968,1.122
	c0.689,0.61,1.081,1.547,1.081,2.604c0,1.812-1.144,3.014-2.586,3.502v0.067c1.058,0.36,1.687,1.34,2.012,2.763
	c0.452,1.915,0.776,3.236,1.062,3.767h-1.83c-0.229-0.408-0.53-1.569-0.919-3.277c-0.403-1.893-1.14-2.606-2.745-2.67H8.563v5.947
	h-1.77V128.457z M8.563,134.709h1.811c1.889,0,3.093-1.039,3.093-2.608c0-1.769-1.283-2.546-3.152-2.562
	c-0.856,0-1.466,0.079-1.751,0.158V134.709z"/>
<polygon fill="#8F8F8F" points="25.323,135.562 19.995,135.562 19.995,140.514 25.932,140.514 25.932,141.997 18.221,141.997 
	18.221,128.275 25.628,128.275 25.628,129.761 19.995,129.761 19.995,134.099 25.323,134.099 "/>
<path fill="#8F8F8F" d="M39.151,141.386c-0.792,0.286-2.36,0.754-4.207,0.754c-2.076,0-3.786-0.531-5.125-1.812
	c-1.181-1.138-1.917-2.97-1.917-5.11c0.023-4.092,2.829-7.086,7.427-7.086c1.588,0,2.828,0.346,3.418,0.631l-0.427,1.443
	c-0.733-0.325-1.648-0.587-3.035-0.587c-3.335,0-5.51,2.078-5.51,5.52c0,3.48,2.096,5.534,5.288,5.534
	c1.161,0,1.953-0.158,2.361-0.364v-4.092h-2.789v-1.427h4.516V141.386z"/>
<rect x="42.343" y="128.275" fill="#8F8F8F" width="1.771" height="13.722"/>
<path fill="#8F8F8F" d="M59.407,134.991c0,4.723-2.867,7.229-6.365,7.229c-3.621,0-6.163-2.808-6.163-6.963
	c0-4.353,2.706-7.207,6.369-7.207C56.987,128.049,59.407,130.919,59.407,134.991 M48.768,135.217c0,2.934,1.588,5.559,4.376,5.559
	c2.808,0,4.394-2.585,4.394-5.701c0-2.729-1.426-5.58-4.374-5.58C50.233,129.495,48.768,132.204,48.768,135.217"/>
<path fill="#8F8F8F" d="M62.196,141.997v-13.722h1.933l4.389,6.942c1.022,1.609,1.814,3.053,2.463,4.457l0.04-0.02
	c-0.162-1.833-0.202-3.503-0.202-5.64v-5.74h1.667v13.722h-1.79l-4.354-6.962c-0.954-1.531-1.874-3.098-2.562-4.584l-0.063,0.024
	c0.103,1.729,0.143,3.379,0.143,5.657v5.864H62.196z"/>
<path fill="#8F8F8F" d="M78.281,137.683l-1.421,4.313h-1.83l4.657-13.722h2.132l4.682,13.722h-1.894l-1.465-4.313H78.281z
	 M82.777,136.296l-1.342-3.95c-0.301-0.896-0.512-1.713-0.709-2.506h-0.043c-0.203,0.816-0.428,1.649-0.693,2.486l-1.339,3.97
	H82.777z M83.751,125.162l-2.583,2.38h-1.465l1.894-2.38H83.751z"/>
<polygon fill="#8F8F8F" points="88.996,128.275 90.771,128.275 90.771,140.514 96.625,140.514 96.625,141.997 88.996,141.997 "/>
<path fill="#8F8F8F" d="M99.088,141.997v-13.722h1.932l4.39,6.942c1.021,1.609,1.813,3.053,2.464,4.457l0.039-0.02
	c-0.162-1.833-0.202-3.503-0.202-5.64v-5.74h1.667v13.722h-1.79l-4.354-6.962c-0.955-1.531-1.874-3.098-2.562-4.584l-0.064,0.024
	c0.104,1.729,0.143,3.379,0.143,5.657v5.864H99.088z"/>
<path fill="#8F8F8F" d="M116.817,125.162l-2.578,2.38h-1.466l1.89-2.38H116.817z M114.727,141.997h-1.771v-13.722h1.771V141.997z"/>
<path fill="#8F8F8F" d="M122.862,139.839c0.792,0.488,1.948,0.896,3.172,0.896c1.815,0,2.869-0.959,2.869-2.343
	c0-1.28-0.733-2.022-2.587-2.732c-2.234-0.793-3.62-1.95-3.62-3.885c0-2.137,1.774-3.727,4.437-3.727
	c1.402,0,2.42,0.329,3.034,0.674l-0.491,1.442c-0.448-0.241-1.363-0.649-2.607-0.649c-1.869,0-2.583,1.117-2.583,2.053
	c0,1.285,0.836,1.919,2.726,2.649c2.325,0.896,3.505,2.018,3.505,4.031c0,2.122-1.573,3.97-4.805,3.97
	c-1.323,0-2.765-0.404-3.501-0.896L122.862,139.839z"/>
<path fill="#8F8F8F" d="M133.62,128.275h1.767v6.616h0.063c0.365-0.531,0.733-1.018,1.078-1.466l4.191-5.15h2.194l-4.959,5.824
	l5.347,7.897h-2.091l-4.516-6.74l-1.307,1.507v5.233h-1.767V128.275z"/>
<path fill="#8F8F8F" d="M146.902,128.275v8.124c0,3.072,1.362,4.377,3.192,4.377c2.032,0,3.336-1.348,3.336-4.377v-8.124h1.79v8.002
	c0,4.214-2.214,5.942-5.185,5.942c-2.808,0-4.923-1.605-4.923-5.86v-8.084H146.902z"/>
<path fill="#8F8F8F" d="M158.776,128.437c0.856-0.143,1.978-0.266,3.399-0.266c1.747,0,3.029,0.408,3.846,1.143
	c0.753,0.65,1.201,1.645,1.201,2.87c0,1.241-0.369,2.216-1.058,2.931c-0.939,0.998-2.464,1.507-4.191,1.507
	c-0.531,0-1.022-0.02-1.426-0.12v5.495h-1.771V128.437z M160.547,135.05c0.388,0.104,0.875,0.146,1.466,0.146
	c2.134,0,3.438-1.041,3.438-2.934c0-1.812-1.283-2.684-3.236-2.684c-0.772,0-1.362,0.06-1.667,0.138V135.05z"/>
<rect x="170.085" y="128.275" fill="#8F8F8F" width="1.77" height="13.722"/>
<path fill="#8F8F8F" d="M175.433,141.997v-13.722h1.933l4.397,6.942c1.014,1.609,1.806,3.053,2.459,4.457l0.04-0.02
	c-0.163-1.833-0.203-3.503-0.203-5.64v-5.74h1.664v13.722h-1.786l-4.354-6.962c-0.958-1.531-1.865-3.098-2.562-4.584l-0.06,0.024
	c0.103,1.729,0.143,3.379,0.143,5.657v5.864H175.433z"/>
<path fill="#8F8F8F" d="M191.521,137.683l-1.425,4.313h-1.83l4.659-13.722h2.137l4.674,13.722h-1.887l-1.463-4.313H191.521z
	 M196.019,136.296l-1.344-3.95c-0.305-0.896-0.511-1.713-0.713-2.506h-0.04c-0.206,0.816-0.428,1.649-0.696,2.486l-1.339,3.97
	H196.019z"/>
<path fill="#8F8F8F" d="M207.041,128.457c0.77-0.162,1.99-0.285,3.234-0.285c1.77,0,2.906,0.306,3.762,0.995
	c0.713,0.531,1.141,1.349,1.141,2.427c0,1.325-0.879,2.481-2.322,3.014v0.039c1.299,0.325,2.828,1.403,2.828,3.441
	c0,1.182-0.467,2.077-1.158,2.752c-0.955,0.872-2.502,1.281-4.742,1.281c-1.221,0-2.156-0.084-2.742-0.163V128.457z
	 M208.808,134.075h1.607c1.871,0,2.971-0.975,2.971-2.303c0-1.606-1.219-2.232-3.01-2.232c-0.816,0-1.283,0.056-1.568,0.119V134.075
	z M208.808,140.653c0.35,0.06,0.855,0.083,1.486,0.083c1.832,0,3.52-0.677,3.52-2.668c0-1.875-1.607-2.647-3.539-2.647h-1.467
	V140.653z"/>
<path fill="#8F8F8F" d="M218.552,128.457c0.895-0.182,2.174-0.285,3.395-0.285c1.889,0,3.109,0.345,3.965,1.122
	c0.693,0.61,1.078,1.547,1.078,2.604c0,1.812-1.139,3.014-2.584,3.502v0.067c1.062,0.36,1.689,1.34,2.018,2.763
	c0.447,1.915,0.771,3.236,1.057,3.767h-1.83c-0.227-0.408-0.531-1.569-0.918-3.277c-0.404-1.893-1.139-2.606-2.746-2.67h-1.668
	v5.947h-1.766V128.457z M220.318,134.709h1.811c1.895,0,3.094-1.039,3.094-2.608c0-1.769-1.283-2.546-3.152-2.562
	c-0.857,0-1.467,0.079-1.752,0.158V134.709z"/>
<path fill="#8F8F8F" d="M229.98,141.997v-13.722h1.932l4.395,6.942c1.016,1.609,1.812,3.053,2.463,4.457l0.039-0.02
	c-0.162-1.833-0.201-3.503-0.201-5.64v-5.74h1.666v13.722h-1.789l-4.354-6.962c-0.955-1.531-1.873-3.098-2.562-4.584l-0.064,0.024
	c0.104,1.729,0.143,3.379,0.143,5.657v5.864H229.98z"/>
<path fill="#8F8F8F" d="M255.568,134.991c0,4.723-2.869,7.229-6.365,7.229c-3.621,0-6.164-2.808-6.164-6.963
	c0-4.353,2.701-7.207,6.369-7.207C253.148,128.049,255.568,130.919,255.568,134.991 M244.927,135.217
	c0,2.934,1.59,5.559,4.375,5.559c2.811,0,4.391-2.585,4.391-5.701c0-2.729-1.416-5.58-4.371-5.58
	C246.392,129.495,244.927,132.204,244.927,135.217"/>
<path fill="#8F8F8F" d="M195.158,39.083c-1.314,0-2.336,0.496-3.057,1.487c-0.722,0.991-1.082,2.371-1.082,4.143
	c0,3.68,1.379,5.523,4.139,5.523c1.162,0,2.562-0.29,4.215-0.869v2.934c-1.355,0.567-2.867,0.849-4.539,0.849
	c-2.4,0-4.238-0.73-5.506-2.185c-1.276-1.456-1.913-3.549-1.913-6.277c0-1.721,0.313-3.224,0.938-4.512
	c0.626-1.293,1.521-2.284,2.693-2.974c1.169-0.689,2.54-1.035,4.111-1.035c1.609,0,3.219,0.389,4.834,1.162l-1.131,2.847
	c-0.617-0.294-1.238-0.547-1.861-0.765C196.375,39.194,195.761,39.083,195.158,39.083"/>
<polygon fill="#8F8F8F" points="211.39,52.928 201.425,52.928 201.425,50.89 207.271,42.929 201.773,42.929 201.773,40.292 
	211.189,40.292 211.189,42.532 205.496,50.295 211.39,50.295 "/>
<path fill="#8F8F8F" d="M219.597,53.15c-2.027,0-3.621-0.559-4.76-1.681c-1.145-1.123-1.725-2.712-1.725-4.77
	c0-2.113,0.535-3.755,1.594-4.909c1.057-1.157,2.518-1.732,4.385-1.732c1.781,0,3.172,0.508,4.162,1.522
	c0.998,1.015,1.494,2.423,1.494,4.215v1.673h-8.137c0.035,0.979,0.326,1.745,0.867,2.296c0.543,0.546,1.303,0.825,2.277,0.825
	c0.76,0,1.482-0.08,2.16-0.238c0.676-0.159,1.381-0.412,2.119-0.761v2.672c-0.604,0.301-1.244,0.523-1.926,0.67
	C221.419,53.083,220.587,53.15,219.597,53.15 M219.115,42.508c-0.729,0-1.301,0.23-1.717,0.694
	c-0.414,0.463-0.652,1.122-0.709,1.971h4.83c-0.012-0.849-0.234-1.507-0.666-1.971C220.421,42.739,219.841,42.508,219.115,42.508"/>
<path fill="#8F8F8F" d="M232.671,53.15c-3.928,0-5.893-2.157-5.893-6.471c0-2.149,0.535-3.79,1.604-4.925
	c1.07-1.134,2.6-1.697,4.596-1.697c1.457,0,2.768,0.285,3.93,0.856l-1.018,2.665c-0.543-0.214-1.047-0.396-1.514-0.536
	c-0.465-0.138-0.932-0.21-1.398-0.21c-1.791,0-2.686,1.278-2.686,3.823c0,2.471,0.895,3.703,2.686,3.703
	c0.66,0,1.275-0.087,1.838-0.262c0.566-0.178,1.133-0.456,1.695-0.833v2.955c-0.555,0.353-1.117,0.595-1.688,0.729
	C234.253,53.087,233.539,53.15,232.671,53.15"/>
<path fill="#8F8F8F" d="M251.083,52.928h-3.441v-7.383c0-1.823-0.678-2.736-2.033-2.736c-0.961,0-1.66,0.333-2.088,0.984
	c-0.428,0.658-0.641,1.72-0.641,3.187v5.948h-3.447V35.343h3.447v3.581c0,0.277-0.031,0.936-0.08,1.967l-0.078,1.015h0.178
	c0.768-1.233,1.984-1.848,3.656-1.848c1.482,0,2.607,0.397,3.375,1.197c0.768,0.797,1.152,1.947,1.152,3.434V52.928z"/>
<polygon fill="#8F8F8F" points="188.147,78.911 188.147,62.389 191.649,62.389 191.649,76.02 198.343,76.02 198.343,78.911 "/>
<path fill="#8F8F8F" d="M200.791,63.011c0-1.122,0.627-1.686,1.877-1.686c1.248,0,1.871,0.563,1.871,1.686
	c0,0.536-0.156,0.952-0.469,1.249c-0.309,0.298-0.779,0.444-1.402,0.444C201.417,64.705,200.791,64.142,200.791,63.011
	 M204.378,78.911h-3.441V66.278h3.441V78.911z"/>
<path fill="#8F8F8F" d="M218.978,66.274v1.752l-1.975,0.508c0.359,0.567,0.543,1.201,0.543,1.903c0,1.356-0.477,2.411-1.418,3.168
	c-0.943,0.758-2.258,1.138-3.938,1.138l-0.617-0.036l-0.508-0.059c-0.355,0.274-0.531,0.574-0.531,0.904
	c0,0.499,0.635,0.746,1.898,0.746h2.143c1.385,0,2.439,0.302,3.168,0.896c0.725,0.596,1.086,1.468,1.086,2.62
	c0,1.479-0.615,2.622-1.846,3.439c-1.229,0.808-2.994,1.216-5.301,1.216c-1.758,0-3.105-0.305-4.031-0.919
	c-0.932-0.614-1.395-1.475-1.395-2.582c0-0.761,0.236-1.398,0.709-1.91c0.475-0.513,1.168-0.882,2.088-1.096
	c-0.352-0.149-0.66-0.396-0.928-0.741c-0.258-0.345-0.393-0.705-0.393-1.09c0-0.484,0.139-0.885,0.416-1.205
	c0.279-0.317,0.682-0.635,1.213-0.944c-0.664-0.286-1.188-0.746-1.576-1.38c-0.391-0.63-0.584-1.376-0.584-2.236
	c0-1.379,0.449-2.442,1.344-3.196c0.896-0.753,2.176-1.13,3.84-1.13c0.352,0,0.771,0.032,1.258,0.095
	c0.486,0.063,0.795,0.111,0.932,0.139H218.978z M209.236,80.698c0,0.474,0.23,0.846,0.682,1.119
	c0.459,0.271,1.094,0.404,1.916,0.404c1.232,0,2.199-0.166,2.9-0.507c0.697-0.341,1.049-0.802,1.049-1.392
	c0-0.473-0.209-0.802-0.621-0.979c-0.412-0.183-1.055-0.273-1.918-0.273h-1.781c-0.633,0-1.164,0.146-1.588,0.447
	C209.451,79.81,209.236,80.208,209.236,80.698 M210.488,70.414c0,0.682,0.158,1.229,0.467,1.625c0.316,0.4,0.793,0.599,1.432,0.599
	c0.645,0,1.119-0.199,1.42-0.599c0.301-0.396,0.451-0.943,0.451-1.625c0-1.523-0.625-2.288-1.871-2.288
	C211.121,68.126,210.488,68.891,210.488,70.414"/>
<path fill="#8F8F8F" d="M232.705,78.911h-3.441v-7.379c0-1.824-0.678-2.735-2.033-2.735c-0.963,0-1.658,0.329-2.086,0.983
	c-0.428,0.658-0.646,1.72-0.646,3.188v5.943h-3.443V61.326h3.443v3.584c0,0.278-0.027,0.936-0.076,1.967l-0.078,1.015h0.178
	c0.77-1.238,1.984-1.852,3.656-1.852c1.48,0,2.605,0.4,3.375,1.197c0.768,0.797,1.152,1.947,1.152,3.438V78.911z"/>
<path fill="#8F8F8F" d="M241.566,76.393c0.6,0,1.322-0.135,2.17-0.396v2.561c-0.859,0.39-1.914,0.58-3.162,0.58
	c-1.377,0-2.383-0.35-3.008-1.047c-0.627-0.698-0.943-1.741-0.943-3.133v-6.09h-1.648v-1.459l1.898-1.153l0.994-2.669h2.201v2.688
	h3.533v2.593h-3.533v6.09c0,0.488,0.135,0.849,0.412,1.082C240.75,76.274,241.113,76.393,241.566,76.393"/>
<path fill="#8F8F8F" d="M246.14,63.011c0-1.122,0.621-1.686,1.875-1.686c1.252,0,1.873,0.563,1.873,1.686
	c0,0.536-0.156,0.952-0.469,1.249c-0.312,0.298-0.779,0.444-1.404,0.444C246.761,64.705,246.14,64.142,246.14,63.011
	 M249.728,78.911h-3.441V66.278h3.441V78.911z"/>
<path fill="#8F8F8F" d="M264.99,78.911h-3.441v-7.379c0-0.912-0.162-1.594-0.486-2.054c-0.324-0.452-0.84-0.682-1.547-0.682
	c-0.965,0-1.658,0.325-2.092,0.967c-0.426,0.643-0.641,1.713-0.641,3.204v5.943h-3.441V66.274h2.629l0.465,1.618h0.189
	c0.385-0.611,0.91-1.071,1.588-1.384c0.674-0.314,1.438-0.468,2.303-0.468c1.461,0,2.574,0.396,3.336,1.193
	c0.76,0.793,1.139,1.943,1.139,3.442V78.911z"/>
<path fill="#8F8F8F" d="M279.519,66.274v1.752l-1.973,0.508c0.357,0.567,0.539,1.201,0.539,1.903c0,1.356-0.471,2.411-1.418,3.168
	c-0.941,0.758-2.254,1.138-3.934,1.138l-0.621-0.036l-0.508-0.059c-0.352,0.274-0.531,0.574-0.531,0.904
	c0,0.499,0.635,0.746,1.898,0.746h2.143c1.387,0,2.439,0.302,3.168,0.896c0.729,0.596,1.09,1.468,1.09,2.62
	c0,1.479-0.613,2.622-1.846,3.439c-1.232,0.808-2.996,1.216-5.299,1.216c-1.764,0-3.111-0.305-4.037-0.919s-1.395-1.475-1.395-2.582
	c0-0.761,0.238-1.398,0.713-1.91c0.475-0.513,1.168-0.882,2.084-1.096c-0.35-0.149-0.658-0.396-0.924-0.741
	c-0.264-0.345-0.393-0.705-0.393-1.09c0-0.484,0.133-0.885,0.416-1.205c0.277-0.317,0.684-0.635,1.209-0.944
	c-0.666-0.286-1.188-0.746-1.576-1.38c-0.389-0.63-0.578-1.376-0.578-2.236c0-1.379,0.443-2.442,1.338-3.196
	c0.896-0.753,2.18-1.13,3.842-1.13c0.354,0,0.773,0.032,1.262,0.095c0.482,0.063,0.791,0.111,0.926,0.139H279.519z M269.775,80.698
	c0,0.474,0.23,0.846,0.686,1.119c0.455,0.271,1.094,0.404,1.914,0.404c1.236,0,2.203-0.166,2.898-0.507
	c0.701-0.341,1.055-0.802,1.055-1.392c0-0.473-0.209-0.802-0.623-0.979c-0.414-0.183-1.057-0.273-1.92-0.273h-1.783
	c-0.635,0-1.16,0.146-1.584,0.447C269.99,79.81,269.775,80.208,269.775,80.698 M271.031,70.414c0,0.682,0.154,1.229,0.469,1.625
	c0.312,0.4,0.787,0.599,1.428,0.599c0.646,0,1.119-0.199,1.42-0.599c0.301-0.396,0.451-0.943,0.451-1.625
	c0-1.523-0.623-2.288-1.871-2.288C271.66,68.126,271.031,68.891,271.031,70.414"/>
<path fill="#8F8F8F" d="M197.892,100.309c0,1.491-0.539,2.665-1.607,3.521c-1.074,0.86-2.568,1.292-4.478,1.292
	c-1.762,0-3.319-0.333-4.673-0.998v-3.252c1.113,0.499,2.051,0.849,2.827,1.051c0.769,0.203,1.474,0.306,2.116,0.306
	c0.769,0,1.355-0.147,1.767-0.445c0.412-0.293,0.617-0.729,0.617-1.308c0-0.325-0.09-0.611-0.272-0.864
	c-0.179-0.255-0.447-0.495-0.796-0.729c-0.349-0.229-1.061-0.603-2.139-1.119c-1.006-0.475-1.767-0.927-2.265-1.363
	c-0.507-0.44-0.911-0.947-1.212-1.53c-0.301-0.579-0.452-1.253-0.452-2.029c0-1.464,0.499-2.613,1.485-3.45
	c0.99-0.833,2.357-1.253,4.104-1.253c0.859,0,1.675,0.104,2.456,0.306c0.779,0.202,1.596,0.486,2.443,0.859l-1.129,2.721
	c-0.883-0.361-1.609-0.611-2.182-0.753c-0.579-0.145-1.146-0.215-1.703-0.215c-0.659,0-1.17,0.151-1.522,0.46
	c-0.356,0.31-0.531,0.714-0.531,1.209c0,0.31,0.072,0.58,0.214,0.809c0.142,0.23,0.373,0.452,0.682,0.667
	c0.317,0.213,1.054,0.598,2.219,1.158c1.544,0.74,2.601,1.479,3.177,2.221C197.607,98.32,197.892,99.231,197.892,100.309"/>
<path fill="#8F8F8F" d="M212.08,98.557c0,2.054-0.537,3.664-1.625,4.826c-1.084,1.157-2.59,1.739-4.523,1.739
	c-1.211,0-2.281-0.27-3.207-0.801c-0.928-0.53-1.641-1.292-2.131-2.283c-0.5-1-0.75-2.157-0.75-3.481
	c0-2.066,0.539-3.672,1.617-4.813c1.072-1.146,2.586-1.721,4.535-1.721c1.211,0,2.281,0.265,3.209,0.793
	c0.926,0.527,1.637,1.285,2.131,2.271C211.833,96.075,212.08,97.233,212.08,98.557 M203.357,98.557c0,1.249,0.207,2.197,0.615,2.835
	c0.406,0.639,1.076,0.967,2.008,0.967c0.91,0,1.576-0.324,1.977-0.963c0.4-0.634,0.605-1.582,0.605-2.839
	c0-1.253-0.205-2.188-0.609-2.814c-0.408-0.627-1.078-0.937-2.002-0.937c-0.918,0-1.58,0.31-1.982,0.929
	C203.56,96.361,203.357,97.296,203.357,98.557"/>
<path fill="#8F8F8F" d="M220.048,105.123c-3.928,0-5.895-2.16-5.895-6.478c0-2.146,0.539-3.783,1.609-4.917
	c1.066-1.135,2.598-1.705,4.594-1.705c1.459,0,2.768,0.285,3.928,0.86l-1.02,2.668c-0.537-0.222-1.045-0.396-1.512-0.539
	c-0.465-0.139-0.932-0.206-1.396-0.206c-1.793,0-2.688,1.265-2.688,3.813c0,2.475,0.895,3.708,2.688,3.708
	c0.658,0,1.277-0.087,1.84-0.266c0.562-0.175,1.129-0.451,1.695-0.828v2.949c-0.559,0.349-1.121,0.599-1.688,0.734
	C221.634,105.051,220.917,105.123,220.048,105.123"/>
<path fill="#8F8F8F" d="M226.664,88.993c0-1.117,0.627-1.681,1.879-1.681c1.246,0,1.869,0.563,1.869,1.681
	c0,0.54-0.156,0.953-0.469,1.254c-0.309,0.294-0.779,0.443-1.4,0.443C227.291,90.69,226.664,90.127,226.664,88.993 M230.251,104.893
	h-3.439V92.26h3.439V104.893z"/>
<path fill="#8F8F8F" d="M239.582,105.123c-2.033,0-3.621-0.562-4.766-1.685c-1.143-1.122-1.715-2.713-1.715-4.77
	c0-2.117,0.525-3.751,1.588-4.909c1.053-1.158,2.52-1.732,4.385-1.732c1.783,0,3.174,0.508,4.164,1.521
	c0.996,1.021,1.488,2.423,1.488,4.215v1.674h-8.137c0.041,0.979,0.326,1.745,0.873,2.292c0.539,0.551,1.299,0.825,2.275,0.825
	c0.762,0,1.479-0.079,2.16-0.238c0.674-0.154,1.383-0.408,2.119-0.753v2.664c-0.604,0.301-1.248,0.527-1.93,0.674
	C241.402,105.051,240.566,105.123,239.582,105.123 M239.093,94.477c-0.729,0-1.299,0.229-1.711,0.694
	c-0.416,0.463-0.652,1.117-0.713,1.974h4.832c-0.016-0.856-0.238-1.511-0.664-1.974C240.406,94.707,239.826,94.477,239.093,94.477"
	/>
<path fill="#8F8F8F" d="M252.845,102.375c0.602,0,1.324-0.13,2.168-0.396v2.565c-0.859,0.385-1.914,0.578-3.162,0.578
	c-1.373,0-2.379-0.349-3.006-1.046c-0.629-0.697-0.941-1.745-0.941-3.137v-6.09h-1.648v-1.459l1.893-1.154l0.996-2.664h2.201v2.688
	h3.533v2.59h-3.533v6.09c0,0.487,0.139,0.852,0.412,1.083C252.031,102.26,252.394,102.375,252.845,102.375"/>
<path fill="#8F8F8F" d="M255.757,92.26h3.77l2.383,7.11c0.205,0.613,0.34,1.347,0.42,2.192h0.066
	c0.084-0.777,0.242-1.507,0.486-2.192l2.338-7.11h3.688l-5.338,14.25c-0.488,1.317-1.186,2.308-2.096,2.959
	c-0.904,0.658-1.967,0.983-3.18,0.983c-0.592,0-1.176-0.063-1.748-0.191v-2.735c0.416,0.1,0.865,0.15,1.354,0.15
	c0.611,0,1.145-0.19,1.6-0.562c0.453-0.373,0.811-0.936,1.066-1.689l0.203-0.619L255.757,92.26z"/>
</svg>
