<?xml version="1.0" encoding="utf-8"?>
<!-- Generator: Adobe Illustrator 13.0.2, SVG Export Plug-In . SVG Version: 6.00 Build 14948)  -->
<!DOCTYPE svg PUBLIC "-//W3C//DTD SVG 1.1//EN" "http://www.w3.org/Graphics/SVG/1.1/DTD/svg11.dtd">
<svg version="1.1" id="Layer_1" xmlns="http://www.w3.org/2000/svg" xmlns:xlink="http://www.w3.org/1999/xlink" x="0px" y="0px"
	 width="592.91px" height="112.5px" viewBox="0 0 592.91 112.5" enable-background="new 0 0 592.91 112.5" xml:space="preserve">
<path fill="#818181" d="M569.706,27.849c-8.362,0-15.194,4.004-18.493,9.541V15.556h-9.187v68.712h9.187V53.055
	c0-9.776,7.303-16.49,17.08-16.49c9.894,0,15.548,5.654,15.548,16.373v31.331h9.069V50.699
	C592.91,36.564,584.194,27.849,569.706,27.849z M165.593,29.032h-13.446v55.374h41.511V73.131h-28.065V29.032z M232.142,63.693
	c0,6.597-4.26,9.938-11.026,9.938c-6.598,0-10.94-3.257-10.94-9.938V29.032h-13.447v35.412c0,14.116,10.607,20.798,24.387,20.798
	c12.864,0,24.473-6.181,24.473-20.798V29.032h-13.447V63.693z M444.128,27.849c-8.245,0-15.077,2.709-20.376,8.245
	c-5.301,5.536-8.01,12.368-8.01,20.613c0,8.48,2.944,15.431,8.716,20.73c5.772,5.301,13.428,8.009,22.732,8.009
	c7.656,0,14.488-1.767,20.731-5.418l-1.532-8.244c-7.067,3.769-12.721,5.064-19.67,5.064c-11.19,0-19.906-6.361-21.438-16.844
	h45.112C473.928,43.396,462.386,27.613,444.128,27.849z M425.519,52.466c0.824-9.423,8.598-16.019,18.845-16.019
	c10.366,0,17.197,6.478,17.669,16.019H425.519z M364.41,29.032h-15.699l-12.112,17.205l-12.194-17.205h-15.702l19.964,27.061
	l-21.048,28.313h15.702l13.278-18.959l13.195,18.959h15.702l-21.047-28.313L364.41,29.032z M282.272,28.196
	c-17.123-0.25-29.733,11.943-29.482,28.397c0,8.436,2.756,15.367,8.186,20.713c5.51,5.262,12.612,7.935,21.296,7.935
	c17.204,0.167,29.649-11.943,29.4-28.565C311.922,40.223,299.477,27.946,282.272,28.196z M293.633,68.369
	c-2.841,3.007-6.6,4.511-11.192,4.511c-4.761,0-8.686-1.504-11.609-4.511c-2.923-3.006-4.427-6.932-4.427-11.693
	c0-4.759,1.503-8.602,4.427-11.525c2.924-3.007,6.848-4.511,11.609-4.511c4.593,0,8.352,1.503,11.192,4.511
	c2.922,2.923,4.342,6.766,4.342,11.525C297.975,61.438,296.555,65.363,293.633,68.369z M512.797,76.848
	c-6.479,0-11.779-1.885-15.901-5.654c-4.005-3.769-6.007-8.716-6.007-14.723c0-6.007,2.002-10.836,6.007-14.488
	c4.004-3.651,9.305-5.536,15.783-5.536c5.772,0,10.954,1.178,15.548,3.416l0.942-8.245c-3.298-1.884-9.775-3.769-16.49-3.769
	c-9.305,0-16.725,2.709-22.497,8.009c-5.771,5.301-8.598,12.132-8.598,20.613c0,8.598,2.826,15.666,8.598,20.966
	c5.772,5.301,13.311,8.009,22.615,8.009c6.007,0,11.896-1.295,17.432-3.769l-1.53-8.362
	C524.457,75.316,518.333,76.848,512.797,76.848z M399.135,77.201c-6.008,0-9.54-3.416-9.54-10.365V36.917h17.549v-7.892h-17.549
	v-13.46h-9.069v13.46h-10.249v7.892h10.131v31.332c0,11.19,6.832,17.196,17.785,17.196c4.83,0,8.716-0.589,11.544-1.884
	l-1.179-7.892C405.849,76.729,402.669,77.201,399.135,77.201z M111.114,13.228l-0.033-0.102l-0.036-0.1
	c-1.958-5.377-6.193-9.613-11.571-11.57l-0.102-0.037l-0.1-0.032c-2.257-0.719-4.514-1.075-6.917-1.231
	C89.939-0.004,87.33,0.001,83.965,0h-55.43c-3.367,0.001-5.971-0.003-8.375,0.155c-2.417,0.157-4.674,0.512-6.932,1.231
	l-0.102,0.032l-0.1,0.037C7.648,3.413,3.413,7.649,1.456,13.026l-0.036,0.101l-0.033,0.102c-0.72,2.256-1.074,4.513-1.231,6.917
	C-0.004,22.561,0.001,25.17,0,28.536v55.326c0.001,3.416-0.004,6.051,0.155,8.479c0.157,2.416,0.512,4.676,1.231,6.932l0.032,0.1
	l0.037,0.102c1.958,5.379,6.193,9.615,11.571,11.572l0.104,0.037l0.098,0.031c2.257,0.719,4.513,1.076,6.917,1.232
	c2.416,0.158,5.025,0.152,8.39,0.154h55.326c3.418-0.002,6.05,0.004,8.479-0.154c2.416-0.156,4.674-0.512,6.932-1.232l0.094-0.031
	l0.108-0.037c5.378-1.957,9.614-6.193,11.571-11.572l0.036-0.1l0.033-0.102c0.72-2.256,1.075-4.512,1.231-6.916
	c0.16-2.418,0.154-5.025,0.155-8.391V28.64c-0.001-3.418,0.004-6.05-0.155-8.479C112.189,17.744,111.833,15.485,111.114,13.228z
	 M77.555,96.447l-3.338,5.73c-4.789,0-9.505-1.74-12.407-12.695l-2.612-9.941l-8.562,21.623h-9.505l14.947-33.305
	c-2.176-8.779-6.53-10.012-11.391-10.012v-1.16l3.627-5.733c6.095,0,11.174,3.411,14.802,15.528l5.514,18.574
	c2.176,7.4,4.136,10.229,8.925,10.229V96.447z M102.384,83.965c0.001,3.365-0.004,5.83-0.132,7.715
	c-0.127,1.844-0.339,3.092-0.748,4.424c-0.488,1.301-1.259,2.455-2.237,3.398c-5.178-3.332-9.242-8.977-12.327-14.348
	c-4.257-7.416-16.207-37.352-19.868-45.792c-1.831-4.22-3.78-8.23-6.129-11.402c-2.348-3.172-4.712-4.86-7.234-4.82
	c-2.522,0.04-4.928,1.71-7.129,4.788s-4.569,8.479-5.988,13.027c-2.838,9.095-6.91,27.501-10.482,37.605
	s-8.269,14.148-10.306,16.008c-1.522,1.391-3.988,3.068-6.996,4.5c-0.776-0.854-1.396-1.854-1.811-2.957
	c-0.409-1.332-0.622-2.582-0.749-4.443c-0.129-1.896-0.134-4.389-0.133-7.807V28.536c-0.001-3.366,0.004-5.832,0.133-7.714
	c0.126-1.849,0.339-3.101,0.75-4.435c0.938-2.487,2.901-4.451,5.387-5.387c1.334-0.411,2.584-0.623,4.446-0.75
	c1.878-0.127,4.339-0.133,7.703-0.133h55.43c3.366,0,5.832,0.005,7.714,0.133c1.848,0.127,3.101,0.34,4.435,0.75
	c2.489,0.94,4.455,2.907,5.39,5.398c0.409,1.331,0.62,2.578,0.747,4.436c0.129,1.896,0.134,4.389,0.133,7.808V83.965z"/>
</svg>
